<svg xmlns="http://www.w3.org/2000/svg" width="22" height="22" fill="none"><g clip-path="url(#a)" opacity=".8"><path fill="#000" d="M11 5.923a5.077 5.077 0 1 0 0 10.154 5.077 5.077 0 0 0 0-10.154zm0 8.462a3.385 3.385 0 1 1 0-6.77 3.385 3.385 0 0 1 0 6.77zM16.077 0H5.923A5.93 5.93 0 0 0 0 5.923v10.154A5.93 5.93 0 0 0 5.923 22h10.154A5.93 5.93 0 0 0 22 16.077V5.923A5.93 5.93 0 0 0 16.077 0zm4.23 16.077a4.23 4.23 0 0 1-4.23 4.23H5.923a4.23 4.23 0 0 1-4.23-4.23V5.923a4.23 4.23 0 0 1 4.23-4.23h10.154a4.23 4.23 0 0 1 4.23 4.23v10.154zM17.77 5.5a1.269 1.269 0 1 1-2.538 0 1.269 1.269 0 0 1 2.538 0z"/></g><defs><clipPath id="a"><path fill="#fff" d="M0 0h22v22H0z"/></clipPath></defs></svg>