<svg xmlns="http://www.w3.org/2000/svg" width="32" height="32" fill="none"><path fill="#000" d="M19.214 9.333c0-.294.113-.577.314-.785.201-.209.474-.326.758-.326h8.571c.284 0 .557.117.758.326.2.208.314.49.314.785 0 .295-.113.578-.314.786a1.052 1.052 0 0 1-.758.325h-8.571c-.284 0-.557-.117-.758-.325a1.132 1.132 0 0 1-.314-.786zM16 20.167c0 1.547-.593 3.03-1.648 4.124A5.525 5.525 0 0 1 10.375 26H2.071c-.284 0-.556-.117-.757-.325A1.132 1.132 0 0 1 1 24.889V7.11c0-.295.113-.577.314-.786.2-.208.473-.325.757-.325H9.84a4.963 4.963 0 0 1 2.871.924 5.25 5.25 0 0 1 1.867 2.442c.372.99.446 2.074.213 3.11a5.324 5.324 0 0 1-1.515 2.69 5.742 5.742 0 0 1 1.997 2.129 6.01 6.01 0 0 1 .728 2.872zM3.143 14.333h6.696c.782 0 1.531-.322 2.084-.895.552-.573.863-1.35.863-2.16s-.31-1.588-.863-2.16a2.894 2.894 0 0 0-2.084-.896H3.143v6.111zm10.714 5.834c0-.475-.09-.944-.265-1.382a3.621 3.621 0 0 0-.755-1.172 3.477 3.477 0 0 0-1.13-.783 3.376 3.376 0 0 0-1.332-.274H3.143v7.222h7.232c.457 0 .91-.094 1.333-.275a3.477 3.477 0 0 0 1.13-.783c.323-.335.58-.733.754-1.171.175-.439.265-.908.265-1.382zM31 19.333c0 .295-.113.578-.314.786a1.05 1.05 0 0 1-.757.325h-9.51c.202.811.62 1.546 1.208 2.121a4.235 4.235 0 0 0 2.11 1.13 4.156 4.156 0 0 0 2.367-.21c.753-.3 1.41-.815 1.895-1.485a1.047 1.047 0 0 1 1.124-.41 1.1 1.1 0 0 1 .656.51 1.14 1.14 0 0 1 .115.844 1.128 1.128 0 0 1-.181.39 6.413 6.413 0 0 1-3.726 2.502 6.225 6.225 0 0 1-4.4-.599 6.587 6.587 0 0 1-2.979-3.413 6.898 6.898 0 0 1-.135-4.6 6.628 6.628 0 0 1 2.772-3.596 6.238 6.238 0 0 1 4.357-.876 6.377 6.377 0 0 1 3.866 2.261A6.815 6.815 0 0 1 31 19.333zm-2.277-1.11a4.46 4.46 0 0 0-1.524-2.41 4.188 4.188 0 0 0-2.628-.933c-.951 0-1.876.329-2.628.934a4.46 4.46 0 0 0-1.523 2.408h8.303z" opacity=".8"/></svg>