<svg xmlns="http://www.w3.org/2000/svg" width="28" height="28" fill="none"><path fill="#000" d="M14 2.625A11.375 11.375 0 1 0 25.375 14 11.387 11.387 0 0 0 14 2.625zm9.587 10.52a18.44 18.44 0 0 0-5.643.619 18.22 18.22 0 0 0-1.471-3.264 18.41 18.41 0 0 0 4.178-3.45 9.601 9.601 0 0 1 2.936 6.095zM19.28 5.957a16.598 16.598 0 0 1-3.75 3.069 18.509 18.509 0 0 0-4.225-4.266 9.625 9.625 0 0 1 7.985 1.197h-.01zm-9.913-.392a16.748 16.748 0 0 1 4.594 4.285A16.605 16.605 0 0 1 7 11.375c-.742 0-1.483-.05-2.218-.148a9.668 9.668 0 0 1 4.586-5.662zM4.375 14c0-.352.02-.704.058-1.054.85.119 1.708.179 2.567.179 2.745.003 5.455-.61 7.932-1.794.545.943.996 1.937 1.346 2.968-.93.349-1.829.773-2.69 1.268a18.509 18.509 0 0 0-6.023 5.585A9.602 9.602 0 0 1 4.375 14zm4.594 8.203a16.72 16.72 0 0 1 5.495-5.117c.734-.424 1.5-.79 2.291-1.094a16.68 16.68 0 0 1 .026 7.222 9.617 9.617 0 0 1-7.812-1.01zm9.74.19a18.448 18.448 0 0 0-.283-6.942 16.662 16.662 0 0 1 5.156-.555 9.638 9.638 0 0 1-4.872 7.495v.001z"/></svg>